<svg width="111" height="22" viewBox="0 0 111 22" fill="none" xmlns="http://www.w3.org/2000/svg">
<path d="M32.9552 0.340262C32.7661 0.340262 32.5805 0.340262 32.395 0.340262C32.3644 0.33846 32.3392 0.333056 32.3085 0.333056H29.4119C28.504 0.333056 27.9492 0.859063 27.9492 1.79579V13.368C27.8609 15.3873 27.0413 16.3817 25.4921 16.3817C23.941 16.3817 23.152 15.2396 23.152 12.9572C23.152 12.9572 23.1538 1.85163 23.1556 1.02479C23.1574 0.46816 23.0313 0.336658 22.3306 0.336658C22.1433 0.336658 21.9595 0.336658 21.774 0.336658C21.7433 0.334857 21.7181 0.329453 21.6875 0.329453H18.7909C17.883 0.329453 17.3281 0.855461 17.3281 1.79219V14.2416C17.3281 16.3475 17.8541 18.1038 18.908 19.4801C19.9906 20.8546 21.5416 21.5571 23.5898 21.5571C24.9949 21.5571 25.7965 21.0005 26.4108 20.5321C26.7332 20.2979 27.025 19.9755 27.288 19.5954C27.551 19.2153 27.697 18.9811 27.7276 18.8928L27.9023 18.4839H28.0735C28.2734 19.7053 28.8174 20.8221 30.291 21.3301C31.8005 21.8507 33.2615 21.3589 33.7767 20.9969C33.7767 19.8908 33.7767 2.46591 33.7803 1.02299C33.7821 0.469961 33.656 0.340262 32.9552 0.340262Z" fill="#EC0000"/>
<path d="M13.6366 11.136C12.4261 10.2768 10.985 9.73634 9.62852 9.09144C8.71161 8.6555 7.71003 8.37809 6.83996 7.86829C5.81136 7.26482 5.91584 5.95521 6.94804 5.38056C8.26306 4.6492 10.3671 5.50486 10.8138 6.94958C10.8841 7.17836 14.4833 8.05564 14.7985 4.71405C14.9192 3.44406 14.1969 2.16867 13.0602 1.50396C10.5779 0.0520342 7.68842 -0.212771 4.62424 0.82123C1.38713 1.90387 -0.280961 5.12296 0.563894 8.41592C1.16016 10.7451 2.90751 11.916 4.99353 12.7032C6.36979 13.222 7.7965 13.622 9.14574 14.2002C9.54025 14.3695 9.96718 14.9586 9.98519 15.3729C10.0032 15.7944 9.64293 16.4033 9.26464 16.6429C7.73345 17.6138 5.70868 16.6609 5.3502 14.8793C5.3502 14.8757 5.3484 14.8739 5.3484 14.8703C5.26193 14.4452 4.6981 14.1858 4.26756 14.2398C3.0228 14.3984 2.18335 14.5046 0.94579 14.6632C0.511654 14.719 -0.0359718 15.1369 0.00185754 15.5729C0.203614 17.8156 1.14214 19.6026 3.21735 20.705C5.88342 22.1227 8.72782 21.9894 11.5506 21.3031C13.6348 20.7969 15.211 19.5738 15.6686 17.3779C16.1748 14.9532 15.7857 12.6618 13.6366 11.136Z" fill="#EC0000"/>
<path d="M63.8432 7.42155H60.2314C59.6369 7.42155 59.2262 7.79084 59.2262 8.42673V8.94013C59.2262 9.57602 59.6369 9.94531 60.2314 9.94531H61.1141V10.0894C61.1141 11.2585 60.6007 11.7521 59.2875 11.7521C57.9941 11.7521 57.4807 10.6028 57.4807 7.8719C57.4807 5.01849 58.0355 3.82777 59.2875 3.82777C60.2728 3.82777 61.0727 4.81313 61.0727 5.96242C61.0727 6.17679 62.4633 6.17499 63.1767 5.88676C64.1314 5.49946 65.6104 3.88181 63.3712 1.48775C62.548 0.608672 61.1537 0.194351 59.2875 0.194351C55.2037 0.194351 53.3555 2.59561 53.3555 7.8701C53.3555 13.1248 55.1821 15.3819 59.2875 15.3819C61.4834 15.3819 63.0019 14.7875 63.7621 13.7192C64.562 12.651 64.8502 11.5017 64.8502 9.94171V8.42313C64.8484 7.85389 64.4791 7.42155 63.8432 7.42155Z" fill="#EC0000"/>
<path d="M91.9154 14.3749C91.6074 13.7517 91.7335 13.4869 92.3081 13.1428C93.5961 12.3754 94.5418 11.2351 94.8571 9.77598C95.7542 5.62916 94.5166 0.844654 88.2153 0.457354C85.3529 0.280817 83.9298 0.342065 81.0674 0.342065C80.2027 0.342065 78.9706 1.05722 78.9706 2.27857C78.9706 8.81403 78.985 14.0921 78.9688 20.6276C78.967 21.1842 79.0931 21.3139 79.7938 21.3139C81.1467 21.3139 82.3968 21.3085 83.8217 21.3085C84.5981 21.3085 84.8233 21.2527 84.8089 20.597C84.7711 18.9811 84.7711 17.3635 84.8143 15.7476C84.8233 15.3837 84.7116 14.7316 85.1043 14.6578C85.7708 14.5317 86.2356 14.6289 86.6787 15.4396C87.003 16.0322 87.3236 16.6429 87.7019 17.4247C88.9305 19.9719 90.3788 22.0867 93.4808 21.7751C95.0444 21.6184 95.8641 20.4655 95.8641 19.6584C93.5078 17.9795 93.0215 16.6159 91.9154 14.3749ZM88.8855 9.71113C88.4873 9.97593 88.0388 10.1182 87.5704 10.1741C84.7963 10.5127 84.7963 10.5091 84.7963 7.71518V7.41254C84.7963 5.27068 84.7963 5.27068 86.8643 5.34094C88.871 5.40939 90.0005 6.42718 89.8654 8.05204C89.8078 8.76179 89.4799 9.31842 88.8855 9.71113Z" fill="#EC0000"/>
<path d="M75.676 5.33013C75.6886 5.33013 75.6994 5.32833 75.712 5.32833C75.948 5.32833 76.1822 5.33013 76.42 5.33013C76.9766 5.33193 77.1063 5.20583 77.1063 4.50509C77.1063 4.17904 77.1045 1.76697 77.1045 1.76697C77.1045 0.949135 76.5785 0.336659 75.6742 0.336659C75.6742 0.336659 67.4274 0.334859 66.8113 0.333057C66.2547 0.331256 66.125 0.457352 66.125 1.1581C66.125 1.6751 66.1268 3.89982 66.1268 3.89982C66.1268 4.71765 66.6528 5.33013 67.5571 5.33013H68.7244V16.3204H67.5571C67.5445 16.3204 67.5337 16.3222 67.5211 16.3222C67.2851 16.3222 67.0509 16.3204 66.8113 16.3204C66.2547 16.3186 66.125 16.4447 66.125 17.1455C66.125 17.6625 66.125 18.1633 66.1268 18.6659V19.8836C66.1268 20.7014 66.6528 21.3139 67.5571 21.3139C67.5571 21.3139 76.1804 21.3139 76.4182 21.3139C76.9748 21.3157 77.1045 21.1896 77.1045 20.4889C77.1045 20.1628 77.1045 19.844 77.1027 19.5269V17.7508C77.1027 16.9329 76.5767 16.3204 75.6724 16.3204H74.5339V5.33013H75.676Z" fill="#EC0000"/>
<path d="M62.6635 16.6411C61.6835 16.9636 60.1919 17.4824 58.2392 17.4824C55.3822 17.4824 52.0622 17.2176 48.9566 13.3013C50.9382 11.7269 51.7884 10.6533 52.0334 9.286C52.8422 4.78792 50.9508 0.841058 45.4403 0.464567C42.5455 0.266413 41.0737 0.412326 38.1789 0.342072C37.6367 0.329462 36.0857 0.873484 36.0857 2.27857C36.0857 7.78184 36.0821 20.3826 36.0821 20.6276C36.0802 21.1842 36.2063 21.3139 36.9071 21.3139C38.2599 21.3139 39.5101 21.3085 40.935 21.3085C41.7114 21.3085 41.9222 21.2545 41.9222 20.597C41.9222 19.0442 41.8844 16.0827 41.8844 15.7584C41.8844 14.6974 42.232 14.6127 42.8517 14.6127C43.194 14.6127 43.5218 14.8919 43.7794 15.1622C44.6837 16.1151 48.2613 20.0223 53.3502 20.9861C58.4266 21.948 63.3102 20.6078 63.638 18.9685C63.9839 17.2157 62.6635 16.6411 62.6635 16.6411ZM45.9555 9.68231C45.5394 9.94531 45.071 10.0894 44.5828 10.1453C41.6862 10.4839 41.6862 10.4803 41.6862 7.68636V7.38373C41.6862 5.24187 41.6862 5.24187 43.8443 5.31212C45.9375 5.38058 47.1192 6.39837 46.9769 8.02322C46.9156 8.73117 46.5752 9.28781 45.9555 9.68231Z" fill="#EC0000"/>
<path d="M98.4145 7.55665L97.8254 6.68298C97.5948 6.38214 97.6435 5.95341 97.9317 5.71022L104.552 0.237579C104.737 0.392499 105.429 1.2914 105.575 1.56161C105.719 1.83182 105.809 2.10743 105.847 2.39025C105.883 2.67487 105.842 2.96669 105.723 3.26393C105.604 3.56116 105.371 3.84397 105.018 4.11058L99.2269 7.69716C98.9621 7.8719 98.609 7.80885 98.4145 7.55665ZM99.2774 11.2261C99.3152 11.5413 99.5872 11.7737 99.906 11.7629L108.401 11.3558C108.837 11.3036 109.185 11.1793 109.437 10.9847C109.689 10.7866 109.873 10.5578 109.987 10.2948C110.1 10.0318 110.165 9.74715 110.176 9.44091C110.188 9.13467 110.05 8.0088 109.967 7.78183L99.7979 9.39408C99.4251 9.45532 99.1675 9.80119 99.2107 10.1759L99.2774 11.2261ZM99.2557 12.8185C98.9711 12.6816 98.627 12.7843 98.4649 13.0581L97.9857 13.9966C97.7948 14.3227 97.8921 14.7424 98.2091 14.9478L105.926 19.8638C106.094 19.6891 106.674 18.7127 106.786 18.4281C106.897 18.1435 106.955 17.857 106.955 17.5706C106.957 17.2842 106.881 16.9996 106.728 16.7168C106.575 16.4357 106.31 16.1835 105.93 15.9584L99.2557 12.8185Z" fill="#EFA614"/>
</svg>
